Coordinates
version=1
nRows=7
nColumns=33
inDegrees=yes

Units are S.I. units (second, meters, Newtons, ...)
Angles are in degrees.

endheader
time	ground_thorax_rot_x	ground_thorax_rot_y	ground_thorax_rot_z	ground_thorax_tx	ground_thorax_ty	ground_thorax_tz	clav_prot_r	clav_elev_r	scapula_abduction_r	scapula_elevation_r	scapula_upward_rot_r	scapula_winging_r	shoulder_elv_r	plane_of_elev_r	axial_rot_r	elbow_flexion_r	pro_sup_r	wrist_flex_r	wrist_dev_r	clav_prot_l	clav_elev_l	scapula_abduction_l	scapula_elevation_l	scapula_upward_rot_l	scapula_winging_l	shoulder_elv_l	plane_of_elev_l	axial_rot_l	elbow_flexion_l	pro_sup_l	wrist_flex_l	wrist_dev_l
      3.61000000	     38.08215493	      4.91942361	     16.78501243	   -186.50839152	    849.64419526	    -11.13131479	     13.48298161	     36.40720590	     33.75915333	     45.00000000	    -45.00000000	   2075.68803988	  -1733.65321318	     30.58978855	     73.14641032	   1453.27942264	     33.79596469	     18.23674099	      6.91256230	      7.98594946	    -45.00000000	    -35.66489167	     45.00000000	    -21.81622232	   -613.45007917	  -3152.91726580	     12.75467485	    179.99999979	      5.75521028	    231.06951426	     12.07614032	    -18.95438157
      3.62000000	     38.26455752	      4.66327729	     16.38383454	   -187.29376150	    850.72987740	    -11.01263865	     13.28411022	     36.59015713	     34.10956132	     45.00000000	    -45.00000000	   2075.50675526	  -1733.77959537	     30.71128528	     72.66589756	   1453.25356632	     33.77745814	     17.92730150	      7.01166791	      7.19060919	    -45.00000000	    -35.26664869	     45.00000000	    -21.66819467	   -613.61621398	  -3152.82834765	     12.74671631	    179.99999979	      5.86798135	    230.95681038	     11.93941353	    -19.13109974
      3.63000000	     38.31712175	      4.91474291	     16.40117731	   -187.85624720	    851.65718047	    -10.90433277	     13.58114875	     36.41987266	     33.95680051	     45.00000000	    -45.00000000	   2075.51610911	  -1733.54424686	     30.69809562	     72.54897292	   1453.32989465	     33.70794763	     18.15477285	      6.85108481	      7.50954550	    -45.00000000	    -35.50098502	     45.00000000	    -21.49922026	   -613.35582993	  -3152.78201729	     12.69266497	    179.99999979	      5.94830041	    230.84705490	     12.12523707	    -19.04049873
      3.64000000	     38.47830726	      4.78696471	     16.11194717	   -188.21854368	    852.42774785	    -10.80852335	     13.25401396	     36.55251716	     34.27277904	     45.00000000	    -45.00000000	   2075.32809262	  -1733.60862760	     30.77581161	     72.44476619	   1453.43427368	     33.59612582	     17.83807568	      6.94521158	      7.42650094	    -45.00000000	    -35.47120030	     45.00000000	    -21.40661496	   -613.37206631	  -3152.80780849	     12.63768282	    179.99999979	      5.98151914	    230.64534146	     11.92908990	    -19.20495095
      3.65000000	     38.42809093	      5.18513543	     16.28991396	   -188.39729228	    853.05421430	    -10.72398771	     13.69862814	     36.36662365	     33.95781574	     45.00000000	    -45.00000000	   2075.42188765	  -1733.38078988	     30.77846674	     72.31389924	   1453.38533849	     33.47758625	     18.21593834	      6.75007764	      7.44311124	    -45.00000000	    -35.54442144	     45.00000000	    -21.38163395	   -613.22795526	  -3152.59382435	     12.64396677	    179.99999979	      6.08334992	    230.49670308	     12.17964329	    -19.04590714
      3.66000000	     38.57530342	      5.06190764	     15.96459991	   -188.41173363	    853.55371025	    -10.64676561	     13.36072617	     36.51579948	     34.21701306	     45.00000000	    -45.00000000	   2075.30566266	  -1733.55997515	     30.83827842	     72.24752178	   1453.37774330	     33.34769999	     17.78882399	      6.89935162	      7.53189746	    -45.00000000	    -35.47430890	     45.00000000	    -21.28849553	   -613.26174069	  -3152.64090598	     12.68312603	    179.99999979	      6.06084750	    230.24871694	     11.93070912	    -19.21112880
      3.67000000	     38.58656501	      5.31935556	     16.03040220	   -188.28333213	    853.94116143	    -10.57337358	     13.54380183	     36.35267694	     34.03324626	     45.00000000	    -45.00000000	   2075.48005411	  -1733.32091613	     30.73645189	     72.20235667	   1453.34532574	     33.25794982	     18.12891713	      6.75274799	      7.51295264	    -45.00000000	    -35.72849101	     45.00000000	    -21.29260778	   -613.12619452	  -3152.56697033	     12.54334670	    179.99999979	      5.98810664	    230.10073742	     12.10142801	    -19.15959481
